ply
format ascii 1.0
comment VCGLIB generated
element vertex 200
property float x
property float y
property float z
element face 400
property list uchar int vertex_indices
end_header
7.25 0 0 
6.48648 2.10758 1.32252 
5.41654 1.75994 2.13988 
4.30471 0 2.13988 
5.69529 0 2.13988 
3.02409 0.982585 1.32252 
3.17971 0 1.32252 
3.02409 0.982585 -1.32252 
4.09402 1.33023 -2.13988 
5.41654 1.75994 -2.13988 
4.30471 0 -2.13988 
6.82029 0 -1.32252 
6.89516 2.24037 0 
5.51773 4.00886 1.32252 
4.60758 3.34761 2.13988 
3.48258 2.53025 2.13988 
4.09402 1.33023 2.13988 
2.2248 1.61641 0 
2.61541 0.849797 0 
2.57244 1.86899 -1.32252 
3.48258 2.53025 -2.13988 
4.60758 3.34761 -2.13988 
5.51773 4.00886 -1.32252 
5.86537 4.26144 0 
6.48648 2.10758 -1.32252 
3.34761 4.60758 2.13988 
2.53025 3.48258 2.13988 
2.57244 1.86899 1.32252 
1.86899 2.57244 1.32252 
1.86899 2.57244 -1.32252 
2.53025 3.48258 -2.13988 
3.34761 4.60758 -2.13988 
4.00886 5.51773 -1.32252 
4.26144 5.86537 0 
1.75994 5.41654 2.13988 
4.00886 5.51773 1.32252 
1.33023 4.09402 2.13988 
0.982585 3.02409 1.32252 
1.61641 2.2248 0 
0.982585 3.02409 -1.32252 
1.33023 4.09402 -2.13988 
1.75994 5.41654 -2.13988 
2.10758 6.48648 1.32252 
2.24037 6.89516 0 
-0 4.30471 2.13988 
-0 2.75 0 
0.849797 2.61541 0 
-0 4.30471 -2.13988 
-0 5.69529 -2.13988 
2.10758 6.48648 -1.32252 
-0 7.25 0 
-0 5.69529 2.13988 
-0 6.82029 1.32252 
-0 3.17971 1.32252 
-0 3.17971 -1.32252 
-1.75994 5.41654 -2.13988 
-2.10758 6.48648 -1.32252 
-2.24037 6.89516 0 
-0 6.82029 -1.32252 
-2.10758 6.48648 1.32252 
-1.75994 5.41654 2.13988 
-3.34761 4.60758 2.13988 
-2.53025 3.48258 2.13988 
-1.33023 4.09402 2.13988 
-0.982585 3.02409 1.32252 
-0.849797 2.61541 0 
-1.86899 2.57244 -1.32252 
-2.53025 3.48258 -2.13988 
-1.33023 4.09402 -2.13988 
-0.982585 3.02409 -1.32252 
-3.34761 4.60758 -2.13988 
-4.00886 5.51773 -1.32252 
-4.26144 5.86537 0 
-5.51773 4.00886 1.32252 
-4.00886 5.51773 1.32252 
-4.60758 3.34761 2.13988 
-2.57244 1.86899 1.32252 
-1.86899 2.57244 1.32252 
-1.61641 2.2248 0 
-5.51773 4.00886 -1.32252 
-6.48648 2.10758 1.32252 
-4.09402 1.33023 2.13988 
-3.48258 2.53025 2.13988 
-2.61541 0.849797 0 
-2.57244 1.86899 -1.32252 
-2.2248 1.61641 0 
-3.02409 0.982585 -1.32252 
-4.09402 1.33023 -2.13988 
-3.48258 2.53025 -2.13988 
-5.41654 1.75994 -2.13988 
-6.48648 2.10758 -1.32252 
-4.60758 3.34761 -2.13988 
-5.86537 4.26144 0 
-5.69529 -0 2.13988 
-5.41654 1.75994 2.13988 
-4.30471 -0 2.13988 
-3.02409 0.982585 1.32252 
-4.30471 -0 -2.13988 
-6.89516 2.24037 0 
-6.48648 -2.10758 1.32252 
-7.25 -1e-006 0 
-6.82029 -1e-006 1.32252 
-4.09402 -1.33023 2.13988 
-3.02409 -0.982585 1.32252 
-2.61541 -0.849797 0 
-3.17971 -0 1.32252 
-3.17971 -0 -1.32252 
-2.75 -0 0 
-3.02409 -0.982585 -1.32252 
-5.69529 -0 -2.13988 
-6.89516 -2.24037 0 
-6.82029 -1e-006 -1.32252 
-4.60758 -3.34761 2.13988 
-5.41654 -1.75994 2.13988 
-3.48258 -2.53025 2.13988 
-2.57244 -1.86899 1.32252 
-2.2248 -1.61641 0 
-4.09402 -1.33023 -2.13988 
-4.60758 -3.34761 -2.13988 
-5.41654 -1.75994 -2.13988 
-5.51773 -4.00886 -1.32252 
-5.86537 -4.26144 0 
-6.48648 -2.10758 -1.32252 
-5.51773 -4.00886 1.32252 
-3.34761 -4.60758 2.13988 
-2.53025 -3.48258 2.13988 
-1.86899 -2.57244 1.32252 
-1.61641 -2.2248 0 
-3.48258 -2.53025 -2.13988 
-2.57244 -1.86899 -1.32252 
-2.53025 -3.48258 -2.13988 
-4.00887 -5.51773 -1.32252 
-2.10759 -6.48648 1.32252 
-1.75994 -5.41654 2.13988 
-4.00887 -5.51773 1.32252 
-1.33023 -4.09402 2.13988 
-1.86899 -2.57244 -1.32252 
-1.33023 -4.09402 -2.13988 
-1.75994 -5.41654 -2.13988 
-3.34761 -4.60758 -2.13988 
-4.26144 -5.86537 0 
0 -7.25 0 
0 -6.82029 1.32252 
0 -5.69529 2.13988 
0 -4.30471 2.13988 
0 -3.17971 1.32252 
-0.982585 -3.02409 1.32252 
0 -3.17971 -1.32252 
-0.849797 -2.61541 0 
0 -4.30471 -2.13988 
-0.982585 -3.02409 -1.32252 
0 -5.69529 -2.13988 
-2.24037 -6.89516 0 
-2.10759 -6.48648 -1.32252 
2.24037 -6.89516 0 
1.75994 -5.41654 2.13988 
1.33023 -4.09402 2.13988 
0.849797 -2.61541 0 
0 -2.75 0 
1.75994 -5.41654 -2.13988 
0 -6.82029 -1.32252 
2.10759 -6.48648 1.32252 
4.00886 -5.51773 1.32252 
3.3476 -4.60758 2.13988 
0.982585 -3.02409 1.32252 
1.86899 -2.57244 1.32252 
1.61641 -2.2248 0 
1.86899 -2.57244 -1.32252 
2.53025 -3.48259 -2.13988 
1.33023 -4.09402 -2.13988 
0.982585 -3.02409 -1.32252 
3.3476 -4.60758 -2.13988 
4.00886 -5.51773 -1.32252 
2.10759 -6.48648 -1.32252 
5.86537 -4.26144 0 
5.51773 -4.00886 1.32252 
3.48258 -2.53025 2.13988 
2.53025 -3.48259 2.13988 
2.2248 -1.61641 0 
4.60758 -3.34761 -2.13988 
5.51773 -4.00886 -1.32252 
4.26144 -5.86537 0 
5.41654 -1.75994 2.13988 
4.60758 -3.34761 2.13988 
4.09402 -1.33023 2.13988 
2.57244 -1.86899 1.32252 
3.02409 -0.982585 -1.32252 
3.48258 -2.53025 -2.13988 
2.57244 -1.86899 -1.32252 
4.09402 -1.33023 -2.13988 
6.82029 0 1.32252 
6.48648 -2.10758 1.32252 
3.02409 -0.982585 1.32252 
2.75 0 0 
2.61541 -0.849797 0 
3.17971 0 -1.32252 
5.69529 0 -2.13988 
5.41654 -1.75994 -2.13988 
6.89516 -2.24037 0 
6.48648 -2.10758 -1.32252 
3 190 0 12 
3 190 12 1 
3 1 2 4 
3 1 4 190 
3 2 16 3 
3 2 3 4 
3 16 5 6 
3 16 6 3 
3 5 18 193 
3 5 193 6 
3 18 7 195 
3 18 195 193 
3 7 8 10 
3 7 10 195 
3 8 9 196 
3 8 196 10 
3 9 24 11 
3 9 11 196 
3 0 11 24 
3 0 24 12 
3 23 13 1 
3 23 1 12 
3 13 14 2 
3 13 2 1 
3 14 15 16 
3 14 16 2 
3 15 27 5 
3 15 5 16 
3 27 17 18 
3 27 18 5 
3 17 19 7 
3 17 7 18 
3 19 20 8 
3 19 8 7 
3 20 21 9 
3 20 9 8 
3 21 22 24 
3 21 24 9 
3 22 23 12 
3 22 12 24 
3 33 35 13 
3 33 13 23 
3 35 25 14 
3 35 14 13 
3 25 26 15 
3 25 15 14 
3 26 28 27 
3 26 27 15 
3 28 38 17 
3 28 17 27 
3 38 29 19 
3 38 19 17 
3 29 30 20 
3 29 20 19 
3 30 31 21 
3 30 21 20 
3 31 32 22 
3 31 22 21 
3 32 33 23 
3 32 23 22 
3 43 42 35 
3 43 35 33 
3 42 34 25 
3 42 25 35 
3 34 36 26 
3 34 26 25 
3 36 37 28 
3 36 28 26 
3 37 46 38 
3 37 38 28 
3 46 39 29 
3 46 29 38 
3 39 40 30 
3 39 30 29 
3 40 41 31 
3 40 31 30 
3 41 49 32 
3 41 32 31 
3 49 43 33 
3 49 33 32 
3 50 52 42 
3 50 42 43 
3 52 51 34 
3 52 34 42 
3 51 44 36 
3 51 36 34 
3 44 53 37 
3 44 37 36 
3 53 45 46 
3 53 46 37 
3 45 54 39 
3 45 39 46 
3 54 47 40 
3 54 40 39 
3 47 48 41 
3 47 41 40 
3 48 58 49 
3 48 49 41 
3 58 50 43 
3 58 43 49 
3 57 59 52 
3 57 52 50 
3 59 60 51 
3 59 51 52 
3 60 63 44 
3 60 44 51 
3 63 64 53 
3 63 53 44 
3 64 65 45 
3 64 45 53 
3 65 69 54 
3 65 54 45 
3 69 68 47 
3 69 47 54 
3 68 55 48 
3 68 48 47 
3 55 56 58 
3 55 58 48 
3 56 57 50 
3 56 50 58 
3 72 74 59 
3 72 59 57 
3 74 61 60 
3 74 60 59 
3 61 62 63 
3 61 63 60 
3 62 77 64 
3 62 64 63 
3 77 78 65 
3 77 65 64 
3 78 66 69 
3 78 69 65 
3 66 67 68 
3 66 68 69 
3 67 70 55 
3 67 55 68 
3 70 71 56 
3 70 56 55 
3 71 72 57 
3 71 57 56 
3 92 73 74 
3 92 74 72 
3 73 75 61 
3 73 61 74 
3 75 82 62 
3 75 62 61 
3 82 76 77 
3 82 77 62 
3 76 85 78 
3 76 78 77 
3 85 84 66 
3 85 66 78 
3 84 88 67 
3 84 67 66 
3 88 91 70 
3 88 70 67 
3 91 79 71 
3 91 71 70 
3 79 92 72 
3 79 72 71 
3 98 80 73 
3 98 73 92 
3 80 94 75 
3 80 75 73 
3 94 81 82 
3 94 82 75 
3 81 96 76 
3 81 76 82 
3 96 83 85 
3 96 85 76 
3 83 86 84 
3 83 84 85 
3 86 87 88 
3 86 88 84 
3 87 89 91 
3 87 91 88 
3 89 90 79 
3 89 79 91 
3 90 98 92 
3 90 92 79 
3 100 101 80 
3 100 80 98 
3 101 93 94 
3 101 94 80 
3 93 95 81 
3 93 81 94 
3 95 105 96 
3 95 96 81 
3 105 107 83 
3 105 83 96 
3 107 106 86 
3 107 86 83 
3 106 97 87 
3 106 87 86 
3 97 109 89 
3 97 89 87 
3 109 111 90 
3 109 90 89 
3 111 100 98 
3 111 98 90 
3 110 99 101 
3 110 101 100 
3 99 113 93 
3 99 93 101 
3 113 102 95 
3 113 95 93 
3 102 103 105 
3 102 105 95 
3 103 104 107 
3 103 107 105 
3 104 108 106 
3 104 106 107 
3 108 117 97 
3 108 97 106 
3 117 119 109 
3 117 109 97 
3 119 122 111 
3 119 111 109 
3 122 110 100 
3 122 100 111 
3 121 123 99 
3 121 99 110 
3 123 112 113 
3 123 113 99 
3 112 114 102 
3 112 102 113 
3 114 115 103 
3 114 103 102 
3 115 116 104 
3 115 104 103 
3 116 129 108 
3 116 108 104 
3 129 128 117 
3 129 117 108 
3 128 118 119 
3 128 119 117 
3 118 120 122 
3 118 122 119 
3 120 121 110 
3 120 110 122 
3 140 134 123 
3 140 123 121 
3 134 124 112 
3 134 112 123 
3 124 125 114 
3 124 114 112 
3 125 126 115 
3 125 115 114 
3 126 127 116 
3 126 116 115 
3 127 136 129 
3 127 129 116 
3 136 130 128 
3 136 128 129 
3 130 139 118 
3 130 118 128 
3 139 131 120 
3 139 120 118 
3 131 140 121 
3 131 121 120 
3 152 132 134 
3 152 134 140 
3 132 133 124 
3 132 124 134 
3 133 135 125 
3 133 125 124 
3 135 146 126 
3 135 126 125 
3 146 148 127 
3 146 127 126 
3 148 150 136 
3 148 136 127 
3 150 137 130 
3 150 130 136 
3 137 138 139 
3 137 139 130 
3 138 153 131 
3 138 131 139 
3 153 152 140 
3 153 140 131 
3 141 142 132 
3 141 132 152 
3 142 143 133 
3 142 133 132 
3 143 144 135 
3 143 135 133 
3 144 145 146 
3 144 146 135 
3 145 158 148 
3 145 148 146 
3 158 147 150 
3 158 150 148 
3 147 149 137 
3 147 137 150 
3 149 151 138 
3 149 138 137 
3 151 160 153 
3 151 153 138 
3 160 141 152 
3 160 152 153 
3 154 161 142 
3 154 142 141 
3 161 155 143 
3 161 143 142 
3 155 156 144 
3 155 144 143 
3 156 164 145 
3 156 145 144 
3 164 157 158 
3 164 158 145 
3 157 170 147 
3 157 147 158 
3 170 169 149 
3 170 149 147 
3 169 159 151 
3 169 151 149 
3 159 173 160 
3 159 160 151 
3 173 154 141 
3 173 141 160 
3 181 162 161 
3 181 161 154 
3 162 163 155 
3 162 155 161 
3 163 177 156 
3 163 156 155 
3 177 165 164 
3 177 164 156 
3 165 166 157 
3 165 157 164 
3 166 167 170 
3 166 170 157 
3 167 168 169 
3 167 169 170 
3 168 171 159 
3 168 159 169 
3 171 172 173 
3 171 173 159 
3 172 181 154 
3 172 154 173 
3 174 175 162 
3 174 162 181 
3 175 183 163 
3 175 163 162 
3 183 176 177 
3 183 177 163 
3 176 185 165 
3 176 165 177 
3 185 178 166 
3 185 166 165 
3 178 188 167 
3 178 167 166 
3 188 187 168 
3 188 168 167 
3 187 179 171 
3 187 171 168 
3 179 180 172 
3 179 172 171 
3 180 174 181 
3 180 181 172 
3 198 191 175 
3 198 175 174 
3 191 182 183 
3 191 183 175 
3 182 184 176 
3 182 176 183 
3 184 192 185 
3 184 185 176 
3 192 194 178 
3 192 178 185 
3 194 186 188 
3 194 188 178 
3 186 189 187 
3 186 187 188 
3 189 197 179 
3 189 179 187 
3 197 199 180 
3 197 180 179 
3 199 198 174 
3 199 174 180 
3 0 190 191 
3 0 191 198 
3 190 4 182 
3 190 182 191 
3 4 3 184 
3 4 184 182 
3 3 6 192 
3 3 192 184 
3 6 193 194 
3 6 194 192 
3 193 195 186 
3 193 186 194 
3 195 10 189 
3 195 189 186 
3 10 196 197 
3 10 197 189 
3 196 11 199 
3 196 199 197 
3 11 0 198 
3 11 198 199 
