ply
format ascii 1.0
comment VCGLIB generated
element vertex 500
property float x
property float y
property float z
element face 1000
property list uchar int vertex_indices
end_header
0.599439 0.15391 0.038627 
0.618882 0 0.038627 
0.582242 0.149494 0.073473 
0.538627 0 0.118882 
0.484292 0.124345 0.125 
0.446878 0.114739 0.118882 
0.461373 0 0.118882 
0.413127 0.106073 0.101127 
0.398873 0 0.073473 
0.375 0 0 
0.398873 0 -0.073473 
0.386342 0.099196 -0.073473 
0.461373 0 -0.118882 
0.426527 0 -0.101127 
0.446878 0.114739 -0.118882 
0.538627 0 -0.118882 
0.5 0 -0.125 
0.521705 0.133951 -0.118882 
0.573473 0 -0.101127 
0.601127 0 -0.073473 
0.582242 0.149494 -0.073473 
0.526772 0.289595 0.073473 
0.555456 0.142617 0.101127 
0.521705 0.133951 0.118882 
0.404304 0.222268 0.118882 
0.386342 0.099196 0.073473 
0.333976 0.183605 0.038627 
0.363219 0.093259 0 
0.369144 0.09478 0.038627 
0.369144 0.09478 -0.038627 
0.413127 0.106073 -0.101127 
0.404304 0.222268 -0.118882 
0.438153 0.240877 -0.125 
0.484292 0.124345 -0.125 
0.472003 0.259486 -0.118882 
0.502538 0.276273 -0.101127 
0.555456 0.142617 -0.101127 
0.599439 0.15391 -0.038627 
0.542331 0.298149 -0.038627 
0.605365 0.155431 0 
0.451146 0.423654 0.038627 
0.542331 0.298149 0.038627 
0.502538 0.276273 0.101127 
0.472003 0.259486 0.118882 
0.392642 0.368716 0.118882 
0.438153 0.240877 0.125 
0.336326 0.315831 0.118882 
0.310925 0.291978 0.101127 
0.373768 0.205481 0.101127 
0.290766 0.273047 0.073473 
0.277823 0.260893 0.038627 
0.349535 0.192158 0.073473 
0.277823 0.260893 -0.038627 
0.328615 0.180658 0 
0.333976 0.183605 -0.038627 
0.349535 0.192158 -0.073473 
0.373768 0.205481 -0.101127 
0.364484 0.342274 -0.125 
0.526772 0.289595 -0.073473 
0.547692 0.301096 0 
0.334892 0.527705 0 
0.455605 0.427842 0 
0.331614 0.522539 0.038627 
0.3221 0.507548 0.073473 
0.438203 0.4115 0.073473 
0.418044 0.392569 0.101127 
0.288611 0.454778 0.118882 
0.364484 0.342274 0.125 
0.213727 0.336779 0.073473 
0.200935 0.316623 0 
0.273363 0.256705 0 
0.204213 0.321788 -0.038627 
0.290766 0.273047 -0.073473 
0.228545 0.360128 -0.101127 
0.247216 0.38955 -0.118882 
0.310925 0.291978 -0.101127 
0.336326 0.315831 -0.118882 
0.392642 0.368716 -0.118882 
0.438203 0.4115 -0.073473 
0.418044 0.392569 -0.101127 
0.3221 0.507548 -0.073473 
0.331614 0.522539 -0.038627 
0.451146 0.423654 -0.038627 
0.185758 0.571706 0.073473 
0.166445 0.512265 0.118882 
0.307282 0.484199 0.101127 
0.142572 0.438792 0.118882 
0.247216 0.38955 0.118882 
0.267913 0.422164 0.125 
0.228545 0.360128 0.101127 
0.204213 0.321788 0.038627 
0.117772 0.362465 -0.038627 
0.213727 0.336779 -0.073473 
0.142572 0.438792 -0.118882 
0.267913 0.422164 -0.125 
0.154508 0.475528 -0.125 
0.288611 0.454778 -0.118882 
0.166445 0.512265 -0.118882 
0.177213 0.545405 -0.101127 
0.307282 0.484199 -0.101127 
0.193136 0.59441 0 
0.039244 0.623767 0 
0.191245 0.588592 0.038627 
0.036009 0.572342 0.101127 
0.177213 0.545405 0.101127 
0.031395 0.499013 0.125 
0.154508 0.475528 0.125 
0.02897 0.460462 0.118882 
0.131804 0.405651 0.101127 
0.026782 0.425685 0.101127 
0.025045 0.398086 0.073473 
0.117772 0.362465 0.038627 
0.123258 0.379351 0.073473 
0.023546 0.37426 0 
0.023931 0.380366 -0.038627 
0.115881 0.356646 0 
0.131804 0.405651 -0.101127 
0.123258 0.379351 -0.073473 
0.026782 0.425685 -0.101127 
0.031395 0.499013 -0.125 
0.033821 0.537564 -0.118882 
0.185758 0.571706 -0.073473 
0.191245 0.588592 -0.038627 
0.03886 0.617661 0.038627 
-0.115967 0.60792 0.038627 
-0.11264 0.590479 0.073473 
0.037745 0.599941 0.073473 
0.033821 0.537564 0.118882 
0.023931 0.380366 0.038627 
-0.070268 0.368358 0 
-0.074741 0.391808 -0.073473 
-0.079923 0.418972 -0.101127 
0.025045 0.398086 -0.073473 
-0.086453 0.453201 -0.118882 
0.02897 0.460462 -0.118882 
-0.11264 0.590479 -0.073473 
0.037745 0.599941 -0.073473 
0.036009 0.572342 -0.101127 
-0.115967 0.60792 -0.038627 
0.03886 0.617661 -0.038627 
-0.263507 0.559981 0.038627 
-0.107458 0.563315 0.101127 
-0.229336 0.487364 0.118882 
-0.100929 0.529087 0.118882 
-0.21289 0.452414 0.125 
-0.093691 0.491144 0.125 
-0.196443 0.417463 0.118882 
-0.181606 0.385933 0.101127 
-0.086453 0.453201 0.118882 
-0.079923 0.418972 0.101127 
-0.071414 0.374367 0.038627 
-0.074741 0.391808 0.073473 
-0.162272 0.344846 0.038627 
-0.159667 0.33931 0 
-0.162272 0.344846 -0.038627 
-0.071414 0.374367 -0.038627 
-0.169832 0.360911 -0.073473 
-0.181606 0.385933 -0.101127 
-0.100929 0.529087 -0.118882 
-0.093691 0.491144 -0.125 
-0.107458 0.563315 -0.101127 
-0.244173 0.518894 -0.101127 
-0.117113 0.61393 0 
-0.255947 0.543916 0.073473 
-0.244173 0.518894 0.101127 
-0.271879 0.328645 0.101127 
-0.169832 0.360911 0.073473 
-0.242934 0.293656 0.038627 
-0.254251 0.307337 -0.073473 
-0.21289 0.452414 -0.125 
-0.196443 0.417463 -0.118882 
-0.318712 0.385257 -0.125 
-0.343334 0.415019 -0.118882 
-0.229336 0.487364 -0.118882 
-0.383173 0.463176 -0.073473 
-0.263507 0.559981 -0.038627 
-0.255947 0.543916 -0.073473 
-0.39449 0.476857 -0.038627 
-0.266112 0.565517 0 
-0.505636 0.367366 0 
-0.39449 0.476857 0.038627 
-0.365546 0.441869 0.101127 
-0.383173 0.463176 0.073473 
-0.318712 0.385257 0.125 
-0.343334 0.415019 0.118882 
-0.373259 0.271188 0.118882 
-0.29409 0.355494 0.118882 
-0.345068 0.250706 0.101127 
-0.254251 0.307337 0.073473 
-0.322695 0.234452 0.073473 
-0.303381 0.220419 0 
-0.239034 0.288942 0 
-0.242934 0.293656 -0.038627 
-0.345068 0.250706 -0.101127 
-0.271879 0.328645 -0.101127 
-0.373259 0.271188 -0.118882 
-0.404509 0.293893 -0.125 
-0.29409 0.355494 -0.118882 
-0.435759 0.316597 -0.118882 
-0.365546 0.441869 -0.101127 
-0.486322 0.353334 -0.073473 
-0.39839 0.481571 0 
-0.58111 0.230078 0 
-0.500686 0.36377 0.038627 
-0.486322 0.353334 0.073473 
-0.46395 0.337079 0.101127 
-0.500803 0.198282 0.118882 
-0.404509 0.293893 0.125 
-0.435759 0.316597 0.118882 
-0.308331 0.224015 0.038627 
-0.322695 0.234452 -0.073473 
-0.308331 0.224015 -0.038627 
-0.396575 0.157015 -0.101127 
-0.533202 0.21111 -0.101127 
-0.46395 0.337079 -0.101127 
-0.558914 0.22129 -0.073473 
-0.500686 0.36377 -0.038627 
-0.620072 0.078333 0 
-0.558914 0.22129 0.073473 
-0.575422 0.227826 0.038627 
-0.533202 0.21111 0.101127 
-0.496057 0.062667 0.125 
-0.457735 0.057825 0.118882 
-0.464888 0.184062 0.125 
-0.423164 0.053458 0.101127 
-0.396575 0.157015 0.101127 
-0.428974 0.169843 0.118882 
-0.395728 0.049992 0.073473 
-0.370863 0.146835 0.073473 
-0.378113 0.047767 0.038627 
-0.354355 0.140299 0.038627 
-0.372043 0.047 0 
-0.354355 0.140299 -0.038627 
-0.348666 0.138047 0 
-0.378113 0.047767 -0.038627 
-0.395728 0.049992 -0.073473 
-0.370863 0.146835 -0.073473 
-0.423164 0.053458 -0.101127 
-0.464888 0.184062 -0.125 
-0.428974 0.169843 -0.118882 
-0.500803 0.198282 -0.118882 
-0.575422 0.227826 -0.038627 
-0.620072 -0.078333 0 
-0.614002 0.077566 0.038627 
-0.568951 -0.071875 0.101127 
-0.568951 0.071875 0.101127 
-0.596387 0.075341 0.073473 
-0.53438 -0.067508 0.118882 
-0.53438 0.067508 0.118882 
-0.457735 -0.057825 0.118882 
-0.395728 -0.049992 0.073473 
-0.378113 -0.047767 0.038627 
-0.457735 0.057825 -0.118882 
-0.457735 -0.057825 -0.118882 
-0.496057 -0.062667 -0.125 
-0.496057 0.062667 -0.125 
-0.568951 -0.071875 -0.101127 
-0.568951 0.071875 -0.101127 
-0.53438 0.067508 -0.118882 
-0.596387 -0.075341 -0.073473 
-0.596387 0.075341 -0.073473 
-0.614002 0.077566 -0.038627 
-0.58111 -0.230078 0 
-0.575422 -0.227826 0.038627 
-0.614002 -0.077566 0.038627 
-0.533202 -0.21111 0.101127 
-0.596387 -0.075341 0.073473 
-0.500803 -0.198282 0.118882 
-0.496057 -0.062667 0.125 
-0.370863 -0.146835 0.073473 
-0.423164 -0.053458 0.101127 
-0.354355 -0.140299 0.038627 
-0.372043 -0.047 0 
-0.354355 -0.140299 -0.038627 
-0.370863 -0.146835 -0.073473 
-0.378113 -0.047767 -0.038627 
-0.423164 -0.053458 -0.101127 
-0.395728 -0.049992 -0.073473 
-0.464888 -0.184062 -0.125 
-0.53438 -0.067508 -0.118882 
-0.533202 -0.21111 -0.101127 
-0.575422 -0.227826 -0.038627 
-0.614002 -0.077566 -0.038627 
-0.500686 -0.36377 0.038627 
-0.558914 -0.22129 0.073473 
-0.404509 -0.293893 0.125 
-0.464888 -0.184062 0.125 
-0.428974 -0.169843 0.118882 
-0.396575 -0.157015 0.101127 
-0.303381 -0.220419 0 
-0.348666 -0.138047 0 
-0.308331 -0.224015 -0.038627 
-0.396575 -0.157015 -0.101127 
-0.428974 -0.169843 -0.118882 
-0.435759 -0.316597 -0.118882 
-0.500803 -0.198282 -0.118882 
-0.46395 -0.337079 -0.101127 
-0.486322 -0.353334 -0.073473 
-0.558914 -0.22129 -0.073473 
-0.365546 -0.441869 0.101127 
-0.486322 -0.353334 0.073473 
-0.343334 -0.415019 0.118882 
-0.46395 -0.337079 0.101127 
-0.435759 -0.316597 0.118882 
-0.318712 -0.385257 0.125 
-0.373259 -0.271188 0.118882 
-0.271879 -0.328645 0.101127 
-0.322695 -0.234452 0.073473 
-0.345068 -0.250706 0.101127 
-0.254251 -0.307337 0.073473 
-0.308331 -0.224015 0.038627 
-0.254251 -0.307337 -0.073473 
-0.322695 -0.234452 -0.073473 
-0.345068 -0.250706 -0.101127 
-0.404509 -0.293893 -0.125 
-0.373259 -0.271188 -0.118882 
-0.343334 -0.415019 -0.118882 
-0.500686 -0.36377 -0.038627 
-0.39839 -0.481571 0 
-0.505636 -0.367366 0 
-0.39449 -0.476857 0.038627 
-0.263507 -0.559981 0.038627 
-0.244173 -0.518894 0.101127 
-0.383173 -0.463176 0.073473 
-0.21289 -0.452413 0.125 
-0.29409 -0.355494 0.118882 
-0.196443 -0.417463 0.118882 
-0.181606 -0.385933 0.101127 
-0.162272 -0.344846 0.038627 
-0.242934 -0.293656 0.038627 
-0.239034 -0.288942 0 
-0.242934 -0.293656 -0.038627 
-0.169832 -0.360911 -0.073473 
-0.271879 -0.328645 -0.101127 
-0.196443 -0.417463 -0.118882 
-0.29409 -0.355494 -0.118882 
-0.318712 -0.385257 -0.125 
-0.21289 -0.452413 -0.125 
-0.229336 -0.487364 -0.118882 
-0.244173 -0.518894 -0.101127 
-0.365546 -0.441869 -0.101127 
-0.39449 -0.476857 -0.038627 
-0.383173 -0.463176 -0.073473 
-0.263507 -0.559981 -0.038627 
-0.266112 -0.565517 0 
-0.11264 -0.59048 0.073473 
-0.255948 -0.543916 0.073473 
-0.107458 -0.563315 0.101127 
-0.09369 -0.491144 0.125 
-0.229336 -0.487364 0.118882 
-0.086452 -0.453201 0.118882 
-0.079923 -0.418972 0.101127 
-0.074741 -0.391808 0.073473 
-0.071414 -0.374367 0.038627 
-0.169832 -0.360911 0.073473 
-0.070268 -0.368358 0 
-0.162272 -0.344846 -0.038627 
-0.159667 -0.33931 0 
-0.181606 -0.385933 -0.101127 
-0.100928 -0.529087 -0.118882 
-0.107458 -0.563315 -0.101127 
-0.11264 -0.59048 -0.073473 
-0.255948 -0.543916 -0.073473 
0.037745 -0.599941 0.073473 
-0.115967 -0.60792 0.038627 
0.036009 -0.572342 0.101127 
0.033821 -0.537564 0.118882 
-0.100928 -0.529087 0.118882 
0.02897 -0.460462 0.118882 
0.023931 -0.380366 0.038627 
0.023931 -0.380366 -0.038627 
-0.071414 -0.374367 -0.038627 
0.025045 -0.398086 -0.073473 
0.026782 -0.425685 -0.101127 
-0.074741 -0.391808 -0.073473 
0.02897 -0.460462 -0.118882 
-0.086452 -0.453201 -0.118882 
-0.079923 -0.418972 -0.101127 
-0.09369 -0.491144 -0.125 
0.033821 -0.537564 -0.118882 
0.036009 -0.572342 -0.101127 
0.03886 -0.617661 -0.038627 
0.039244 -0.623767 0 
-0.117113 -0.61393 0 
-0.115967 -0.60792 -0.038627 
0.193136 -0.59441 0 
0.03886 -0.617661 0.038627 
0.191245 -0.588592 0.038627 
0.185759 -0.571706 0.073473 
0.177213 -0.545405 0.101127 
0.031395 -0.499013 0.125 
0.123259 -0.379351 0.073473 
0.026782 -0.425685 0.101127 
0.025045 -0.398086 0.073473 
0.023546 -0.37426 0 
0.115881 -0.356646 0 
0.131804 -0.405651 -0.101127 
0.154509 -0.475528 -0.125 
0.031395 -0.499013 -0.125 
0.177213 -0.545405 -0.101127 
0.185759 -0.571706 -0.073473 
0.037745 -0.599941 -0.073473 
0.307282 -0.484199 0.101127 
0.154509 -0.475528 0.125 
0.166445 -0.512265 0.118882 
0.142572 -0.438792 0.118882 
0.131804 -0.405651 0.101127 
0.200935 -0.316623 0 
0.117772 -0.362465 0.038627 
0.117772 -0.362465 -0.038627 
0.204213 -0.321789 -0.038627 
0.123259 -0.379351 -0.073473 
0.247216 -0.38955 -0.118882 
0.142572 -0.438792 -0.118882 
0.267913 -0.422164 -0.125 
0.166445 -0.512265 -0.118882 
0.307282 -0.484199 -0.101127 
0.331613 -0.522539 -0.038627 
0.191245 -0.588592 -0.038627 
0.451146 -0.423654 0.038627 
0.331613 -0.522539 0.038627 
0.3221 -0.507549 0.073473 
0.418044 -0.392569 0.101127 
0.392642 -0.368716 0.118882 
0.288611 -0.454778 0.118882 
0.364484 -0.342274 0.125 
0.267913 -0.422164 0.125 
0.247216 -0.38955 0.118882 
0.310925 -0.291978 0.101127 
0.228544 -0.360129 0.101127 
0.204213 -0.321789 0.038627 
0.213727 -0.33678 0.073473 
0.277823 -0.260893 0.038627 
0.273363 -0.256705 0 
0.277823 -0.260893 -0.038627 
0.290766 -0.273047 -0.073473 
0.213727 -0.33678 -0.073473 
0.228544 -0.360129 -0.101127 
0.336326 -0.315832 -0.118882 
0.364484 -0.342274 -0.125 
0.392642 -0.368716 -0.118882 
0.288611 -0.454778 -0.118882 
0.418044 -0.392569 -0.101127 
0.3221 -0.507549 -0.073473 
0.438203 -0.4115 -0.073473 
0.451146 -0.423654 -0.038627 
0.334892 -0.527705 0 
0.455605 -0.427842 0 
0.438203 -0.4115 0.073473 
0.438153 -0.240877 0.125 
0.336326 -0.315832 0.118882 
0.404304 -0.222268 0.118882 
0.290766 -0.273047 0.073473 
0.333976 -0.183605 0.038627 
0.333976 -0.183605 -0.038627 
0.310925 -0.291978 -0.101127 
0.373768 -0.205481 -0.101127 
0.404304 -0.222268 -0.118882 
0.502538 -0.276273 -0.101127 
0.54233 -0.298149 -0.038627 
0.547692 -0.301096 0 
0.599439 -0.15391 0.038627 
0.54233 -0.298149 0.038627 
0.555456 -0.142617 0.101127 
0.526772 -0.289595 0.073473 
0.521705 -0.133951 0.118882 
0.502538 -0.276273 0.101127 
0.472003 -0.259486 0.118882 
0.446878 -0.114739 0.118882 
0.373768 -0.205481 0.101127 
0.349535 -0.192158 0.073473 
0.369144 -0.09478 0.038627 
0.328615 -0.180658 0 
0.369144 -0.09478 -0.038627 
0.349535 -0.192158 -0.073473 
0.446878 -0.114739 -0.118882 
0.438153 -0.240877 -0.125 
0.472003 -0.259486 -0.118882 
0.599439 -0.15391 -0.038627 
0.526772 -0.289595 -0.073473 
0.605365 -0.155431 0 
0.625 0 0 
0.601127 0 0.073473 
0.582242 -0.149494 0.073473 
0.573473 0 0.101127 
0.5 0 0.125 
0.484292 -0.124345 0.125 
0.426527 0 0.101127 
0.386342 -0.099196 0.073473 
0.413127 -0.106073 0.101127 
0.381118 0 0.038627 
0.363219 -0.093259 0 
0.381118 0 -0.038627 
0.386342 -0.099196 -0.073473 
0.413127 -0.106073 -0.101127 
0.484292 -0.124345 -0.125 
0.555456 -0.142617 -0.101127 
0.521705 -0.133951 -0.118882 
0.618882 0 -0.038627 
0.582242 -0.149494 -0.073473 
3 1 481 39 
3 1 39 0 
3 0 2 482 
3 0 482 1 
3 2 22 484 
3 2 484 482 
3 22 23 3 
3 22 3 484 
3 23 4 485 
3 23 485 3 
3 4 5 6 
3 4 6 485 
3 5 7 487 
3 5 487 6 
3 7 25 8 
3 7 8 487 
3 25 28 490 
3 25 490 8 
3 28 27 9 
3 28 9 490 
3 27 29 492 
3 27 492 9 
3 29 11 10 
3 29 10 492 
3 11 30 13 
3 11 13 10 
3 30 14 12 
3 30 12 13 
3 14 33 16 
3 14 16 12 
3 33 17 15 
3 33 15 16 
3 17 36 18 
3 17 18 15 
3 36 20 19 
3 36 19 18 
3 20 37 498 
3 20 498 19 
3 481 498 37 
3 481 37 39 
3 59 41 0 
3 59 0 39 
3 41 21 2 
3 41 2 0 
3 21 42 22 
3 21 22 2 
3 42 43 23 
3 42 23 22 
3 43 45 4 
3 43 4 23 
3 45 24 5 
3 45 5 4 
3 24 48 7 
3 24 7 5 
3 48 51 25 
3 48 25 7 
3 51 26 28 
3 51 28 25 
3 26 53 27 
3 26 27 28 
3 53 54 29 
3 53 29 27 
3 54 55 11 
3 54 11 29 
3 55 56 30 
3 55 30 11 
3 56 31 14 
3 56 14 30 
3 31 32 33 
3 31 33 14 
3 32 34 17 
3 32 17 33 
3 34 35 36 
3 34 36 17 
3 35 58 20 
3 35 20 36 
3 58 38 37 
3 58 37 20 
3 38 59 39 
3 38 39 37 
3 61 40 41 
3 61 41 59 
3 40 64 21 
3 40 21 41 
3 64 65 42 
3 64 42 21 
3 65 44 43 
3 65 43 42 
3 44 67 45 
3 44 45 43 
3 67 46 24 
3 67 24 45 
3 46 47 48 
3 46 48 24 
3 47 49 51 
3 47 51 48 
3 49 50 26 
3 49 26 51 
3 50 70 53 
3 50 53 26 
3 70 52 54 
3 70 54 53 
3 52 72 55 
3 52 55 54 
3 72 75 56 
3 72 56 55 
3 75 76 31 
3 75 31 56 
3 76 57 32 
3 76 32 31 
3 57 77 34 
3 57 34 32 
3 77 79 35 
3 77 35 34 
3 79 78 58 
3 79 58 35 
3 78 82 38 
3 78 38 58 
3 82 61 59 
3 82 59 38 
3 60 62 40 
3 60 40 61 
3 62 63 64 
3 62 64 40 
3 63 85 65 
3 63 65 64 
3 85 66 44 
3 85 44 65 
3 66 88 67 
3 66 67 44 
3 88 87 46 
3 88 46 67 
3 87 89 47 
3 87 47 46 
3 89 68 49 
3 89 49 47 
3 68 90 50 
3 68 50 49 
3 90 69 70 
3 90 70 50 
3 69 71 52 
3 69 52 70 
3 71 92 72 
3 71 72 52 
3 92 73 75 
3 92 75 72 
3 73 74 76 
3 73 76 75 
3 74 94 57 
3 74 57 76 
3 94 96 77 
3 94 77 57 
3 96 99 79 
3 96 79 77 
3 99 80 78 
3 99 78 79 
3 80 81 82 
3 80 82 78 
3 81 60 61 
3 81 61 82 
3 100 102 62 
3 100 62 60 
3 102 83 63 
3 102 63 62 
3 83 104 85 
3 83 85 63 
3 104 84 66 
3 104 66 85 
3 84 106 88 
3 84 88 66 
3 106 86 87 
3 106 87 88 
3 86 108 89 
3 86 89 87 
3 108 112 68 
3 108 68 89 
3 112 111 90 
3 112 90 68 
3 111 115 69 
3 111 69 90 
3 115 91 71 
3 115 71 69 
3 91 117 92 
3 91 92 71 
3 117 116 73 
3 117 73 92 
3 116 93 74 
3 116 74 73 
3 93 95 94 
3 93 94 74 
3 95 97 96 
3 95 96 94 
3 97 98 99 
3 97 99 96 
3 98 121 80 
3 98 80 99 
3 121 122 81 
3 121 81 80 
3 122 100 60 
3 122 60 81 
3 101 123 102 
3 101 102 100 
3 123 126 83 
3 123 83 102 
3 126 103 104 
3 126 104 83 
3 103 127 84 
3 103 84 104 
3 127 105 106 
3 127 106 84 
3 105 107 86 
3 105 86 106 
3 107 109 108 
3 107 108 86 
3 109 110 112 
3 109 112 108 
3 110 128 111 
3 110 111 112 
3 128 113 115 
3 128 115 111 
3 113 114 91 
3 113 91 115 
3 114 132 117 
3 114 117 91 
3 132 118 116 
3 132 116 117 
3 118 134 93 
3 118 93 116 
3 134 119 95 
3 134 95 93 
3 119 120 97 
3 119 97 95 
3 120 137 98 
3 120 98 97 
3 137 136 121 
3 137 121 98 
3 136 139 122 
3 136 122 121 
3 139 101 100 
3 139 100 122 
3 162 124 123 
3 162 123 101 
3 124 125 126 
3 124 126 123 
3 125 141 103 
3 125 103 126 
3 141 143 127 
3 141 127 103 
3 143 145 105 
3 143 105 127 
3 145 148 107 
3 145 107 105 
3 148 149 109 
3 148 109 107 
3 149 151 110 
3 149 110 109 
3 151 150 128 
3 151 128 110 
3 150 129 113 
3 150 113 128 
3 129 155 114 
3 129 114 113 
3 155 130 132 
3 155 132 114 
3 130 131 118 
3 130 118 132 
3 131 133 134 
3 131 134 118 
3 133 159 119 
3 133 119 134 
3 159 158 120 
3 159 120 119 
3 158 160 137 
3 158 137 120 
3 160 135 136 
3 160 136 137 
3 135 138 139 
3 135 139 136 
3 138 162 101 
3 138 101 139 
3 178 140 124 
3 178 124 162 
3 140 163 125 
3 140 125 124 
3 163 164 141 
3 163 141 125 
3 164 142 143 
3 164 143 141 
3 142 144 145 
3 142 145 143 
3 144 146 148 
3 144 148 145 
3 146 147 149 
3 146 149 148 
3 147 166 151 
3 147 151 149 
3 166 152 150 
3 166 150 151 
3 152 153 129 
3 152 129 150 
3 153 154 155 
3 153 155 129 
3 154 156 130 
3 154 130 155 
3 156 157 131 
3 156 131 130 
3 157 170 133 
3 157 133 131 
3 170 169 159 
3 170 159 133 
3 169 173 158 
3 169 158 159 
3 173 161 160 
3 173 160 158 
3 161 176 135 
3 161 135 160 
3 176 175 138 
3 176 138 135 
3 175 178 162 
3 175 162 138 
3 201 180 140 
3 201 140 178 
3 180 182 163 
3 180 163 140 
3 182 181 164 
3 182 164 163 
3 181 184 142 
3 181 142 164 
3 184 183 144 
3 184 144 142 
3 183 186 146 
3 183 146 144 
3 186 165 147 
3 186 147 146 
3 165 188 166 
3 165 166 147 
3 188 167 152 
3 188 152 166 
3 167 191 153 
3 167 153 152 
3 191 192 154 
3 191 154 153 
3 192 168 156 
3 192 156 154 
3 168 194 157 
3 168 157 156 
3 194 197 170 
3 194 170 157 
3 197 171 169 
3 197 169 170 
3 171 172 173 
3 171 173 169 
3 172 199 161 
3 172 161 173 
3 199 174 176 
3 199 176 161 
3 174 177 175 
3 174 175 176 
3 177 201 178 
3 177 178 175 
3 179 203 180 
3 179 180 201 
3 203 204 182 
3 203 182 180 
3 204 205 181 
3 204 181 182 
3 205 208 184 
3 205 184 181 
3 208 207 183 
3 208 183 184 
3 207 185 186 
3 207 186 183 
3 185 187 165 
3 185 165 186 
3 187 189 188 
3 187 188 165 
3 189 209 167 
3 189 167 188 
3 209 190 191 
3 209 191 167 
3 190 211 192 
3 190 192 191 
3 211 210 168 
3 211 168 192 
3 210 193 194 
3 210 194 168 
3 193 195 197 
3 193 197 194 
3 195 196 171 
3 195 171 197 
3 196 198 172 
3 196 172 171 
3 198 214 199 
3 198 199 172 
3 214 200 174 
3 214 174 199 
3 200 216 177 
3 200 177 174 
3 216 179 201 
3 216 201 177 
3 202 219 203 
3 202 203 179 
3 219 218 204 
3 219 204 203 
3 218 220 205 
3 218 205 204 
3 220 206 208 
3 220 208 205 
3 206 223 207 
3 206 207 208 
3 223 226 185 
3 223 185 207 
3 226 225 187 
3 226 187 185 
3 225 228 189 
3 225 189 187 
3 228 230 209 
3 228 209 189 
3 230 233 190 
3 230 190 209 
3 233 232 211 
3 233 211 190 
3 232 236 210 
3 232 210 211 
3 236 212 193 
3 236 193 210 
3 212 239 195 
3 212 195 193 
3 239 238 196 
3 239 196 195 
3 238 240 198 
3 238 198 196 
3 240 213 214 
3 240 214 198 
3 213 215 200 
3 213 200 214 
3 215 241 216 
3 215 216 200 
3 241 202 179 
3 241 179 216 
3 217 243 219 
3 217 219 202 
3 243 246 218 
3 243 218 219 
3 246 245 220 
3 246 220 218 
3 245 248 206 
3 245 206 220 
3 248 221 223 
3 248 223 206 
3 221 222 226 
3 221 226 223 
3 222 224 225 
3 222 225 226 
3 224 227 228 
3 224 228 225 
3 227 229 230 
3 227 230 228 
3 229 231 233 
3 229 233 230 
3 231 234 232 
3 231 232 233 
3 234 235 236 
3 234 236 232 
3 235 237 212 
3 235 212 236 
3 237 252 239 
3 237 239 212 
3 252 255 238 
3 252 238 239 
3 255 258 240 
3 255 240 238 
3 258 257 213 
3 258 213 240 
3 257 260 215 
3 257 215 213 
3 260 261 241 
3 260 241 215 
3 261 217 202 
3 261 202 241 
3 242 264 243 
3 242 243 217 
3 264 266 246 
3 264 246 243 
3 266 244 245 
3 266 245 246 
3 244 247 248 
3 244 248 245 
3 247 268 221 
3 247 221 248 
3 268 249 222 
3 268 222 221 
3 249 270 224 
3 249 224 222 
3 270 250 227 
3 270 227 224 
3 250 251 229 
3 250 229 227 
3 251 272 231 
3 251 231 229 
3 272 275 234 
3 272 234 231 
3 275 277 235 
3 275 235 234 
3 277 276 237 
3 277 237 235 
3 276 253 252 
3 276 252 237 
3 253 254 255 
3 253 255 252 
3 254 279 258 
3 254 258 255 
3 279 256 257 
3 279 257 258 
3 256 259 260 
3 256 260 257 
3 259 282 261 
3 259 261 260 
3 282 242 217 
3 282 217 261 
3 262 263 264 
3 262 264 242 
3 263 284 266 
3 263 266 264 
3 284 265 244 
3 284 244 266 
3 265 267 247 
3 265 247 244 
3 267 286 268 
3 267 268 247 
3 286 287 249 
3 286 249 268 
3 287 288 270 
3 287 270 249 
3 288 269 250 
3 288 250 270 
3 269 271 251 
3 269 251 250 
3 271 290 272 
3 271 272 251 
3 290 273 275 
3 290 275 272 
3 273 274 277 
3 273 277 275 
3 274 292 276 
3 274 276 277 
3 292 293 253 
3 292 253 276 
3 293 278 254 
3 293 254 253 
3 278 295 279 
3 278 279 254 
3 295 280 256 
3 295 256 279 
3 280 298 259 
3 280 259 256 
3 298 281 282 
3 298 282 259 
3 281 262 242 
3 281 242 282 
3 319 283 263 
3 319 263 262 
3 283 300 284 
3 283 284 263 
3 300 302 265 
3 300 265 284 
3 302 303 267 
3 302 267 265 
3 303 285 286 
3 303 286 267 
3 285 305 287 
3 285 287 286 
3 305 308 288 
3 305 288 287 
3 308 307 269 
3 308 269 288 
3 307 310 271 
3 307 271 269 
3 310 289 290 
3 310 290 271 
3 289 291 273 
3 289 273 290 
3 291 312 274 
3 291 274 273 
3 312 313 292 
3 312 292 274 
3 313 315 293 
3 313 293 292 
3 315 314 278 
3 315 278 293 
3 314 294 295 
3 314 295 278 
3 294 296 280 
3 294 280 295 
3 296 297 298 
3 296 298 280 
3 297 317 281 
3 297 281 298 
3 317 319 262 
3 317 262 281 
3 318 320 283 
3 318 283 319 
3 320 323 300 
3 320 300 283 
3 323 299 302 
3 323 302 300 
3 299 301 303 
3 299 303 302 
3 301 304 285 
3 301 285 303 
3 304 325 305 
3 304 305 285 
3 325 306 308 
3 325 308 305 
3 306 309 307 
3 306 307 308 
3 309 329 310 
3 309 310 307 
3 329 330 289 
3 329 289 310 
3 330 331 291 
3 330 291 289 
3 331 311 312 
3 331 312 291 
3 311 333 313 
3 311 313 312 
3 333 335 315 
3 333 315 313 
3 335 336 314 
3 335 314 315 
3 336 316 294 
3 336 294 314 
3 316 340 296 
3 316 296 294 
3 340 342 297 
3 340 297 296 
3 342 341 317 
3 342 317 297 
3 341 318 319 
3 341 319 317 
3 344 321 320 
3 344 320 318 
3 321 346 323 
3 321 323 320 
3 346 322 299 
3 346 299 323 
3 322 349 301 
3 322 301 299 
3 349 324 304 
3 349 304 301 
3 324 326 325 
3 324 325 304 
3 326 327 306 
3 326 306 325 
3 327 354 309 
3 327 309 306 
3 354 328 329 
3 354 329 309 
3 328 357 330 
3 328 330 329 
3 357 356 331 
3 357 331 330 
3 356 332 311 
3 356 311 331 
3 332 358 333 
3 332 333 311 
3 358 334 335 
3 358 335 333 
3 334 337 336 
3 334 336 335 
3 337 338 316 
3 337 316 336 
3 338 339 340 
3 338 340 316 
3 339 362 342 
3 339 342 340 
3 362 343 341 
3 362 341 342 
3 343 344 318 
3 343 318 341 
3 383 364 321 
3 383 321 344 
3 364 345 346 
3 364 346 321 
3 345 347 322 
3 345 322 346 
3 347 367 349 
3 347 349 322 
3 367 348 324 
3 367 324 349 
3 348 350 326 
3 348 326 324 
3 350 351 327 
3 350 327 326 
3 351 352 354 
3 351 354 327 
3 352 353 328 
3 352 328 354 
3 353 355 357 
3 353 357 328 
3 355 371 356 
3 355 356 357 
3 371 374 332 
3 371 332 356 
3 374 377 358 
3 374 358 332 
3 377 376 334 
3 377 334 358 
3 376 378 337 
3 376 337 334 
3 378 359 338 
3 378 338 337 
3 359 360 339 
3 359 339 338 
3 360 361 362 
3 360 362 339 
3 361 384 343 
3 361 343 362 
3 384 383 344 
3 384 344 343 
3 382 386 364 
3 382 364 383 
3 386 363 345 
3 386 345 364 
3 363 365 347 
3 363 347 345 
3 365 366 367 
3 365 367 347 
3 366 390 348 
3 366 348 367 
3 390 368 350 
3 390 350 348 
3 368 392 351 
3 368 351 350 
3 392 393 352 
3 392 352 351 
3 393 369 353 
3 393 353 352 
3 369 394 355 
3 369 355 353 
3 394 370 371 
3 394 371 355 
3 370 372 374 
3 370 374 371 
3 372 373 377 
3 372 377 374 
3 373 375 376 
3 373 376 377 
3 375 398 378 
3 375 378 376 
3 398 379 359 
3 398 359 378 
3 379 380 360 
3 379 360 359 
3 380 401 361 
3 380 361 360 
3 401 381 384 
3 401 384 361 
3 381 382 383 
3 381 383 384 
3 385 387 386 
3 385 386 382 
3 387 388 363 
3 387 363 386 
3 388 389 365 
3 388 365 363 
3 389 404 366 
3 389 366 365 
3 404 403 390 
3 404 390 366 
3 403 405 368 
3 403 368 390 
3 405 406 392 
3 405 392 368 
3 406 391 393 
3 406 393 392 
3 391 408 369 
3 391 369 393 
3 408 395 394 
3 408 394 369 
3 395 409 370 
3 395 370 394 
3 409 411 372 
3 409 372 370 
3 411 396 373 
3 411 373 372 
3 396 413 375 
3 396 375 373 
3 413 397 398 
3 413 398 375 
3 397 415 379 
3 397 379 398 
3 415 399 380 
3 415 380 379 
3 399 400 401 
3 399 401 380 
3 400 418 381 
3 400 381 401 
3 418 385 382 
3 418 382 381 
3 446 420 387 
3 446 387 385 
3 420 421 388 
3 420 388 387 
3 421 402 389 
3 421 389 388 
3 402 424 404 
3 402 404 389 
3 424 426 403 
3 424 403 404 
3 426 427 405 
3 426 405 403 
3 427 429 406 
3 427 406 405 
3 429 431 391 
3 429 391 406 
3 431 430 408 
3 431 408 391 
3 430 407 395 
3 430 395 408 
3 407 410 409 
3 407 409 395 
3 410 436 411 
3 410 411 409 
3 436 437 396 
3 436 396 411 
3 437 412 413 
3 437 413 396 
3 412 414 397 
3 412 397 413 
3 414 441 415 
3 414 415 397 
3 441 416 399 
3 441 399 415 
3 416 443 400 
3 416 400 399 
3 443 417 418 
3 443 418 400 
3 417 446 385 
3 417 385 418 
3 447 419 420 
3 447 420 446 
3 419 448 421 
3 419 421 420 
3 448 422 402 
3 448 402 421 
3 422 423 424 
3 422 424 402 
3 423 425 426 
3 423 426 424 
3 425 450 427 
3 425 427 426 
3 450 428 429 
3 450 429 427 
3 428 452 431 
3 428 431 429 
3 452 432 430 
3 452 430 431 
3 432 433 407 
3 432 407 430 
3 433 434 410 
3 433 410 407 
3 434 435 436 
3 434 436 410 
3 435 455 437 
3 435 437 436 
3 455 438 412 
3 455 412 437 
3 438 439 414 
3 438 414 412 
3 439 440 441 
3 439 441 414 
3 440 442 416 
3 440 416 441 
3 442 444 443 
3 442 443 416 
3 444 445 417 
3 444 417 443 
3 445 447 446 
3 445 446 417 
3 460 462 419 
3 460 419 447 
3 462 464 448 
3 462 448 419 
3 464 466 422 
3 464 422 448 
3 466 467 423 
3 466 423 422 
3 467 449 425 
3 467 425 423 
3 449 451 450 
3 449 450 425 
3 451 469 428 
3 451 428 450 
3 469 470 452 
3 469 452 428 
3 470 453 432 
3 470 432 452 
3 453 472 433 
3 453 433 432 
3 472 454 434 
3 472 434 433 
3 454 474 435 
3 454 435 434 
3 474 456 455 
3 474 455 435 
3 456 457 438 
3 456 438 455 
3 457 476 439 
3 457 439 438 
3 476 477 440 
3 476 440 439 
3 477 458 442 
3 477 442 440 
3 458 479 444 
3 458 444 442 
3 479 459 445 
3 479 445 444 
3 459 460 447 
3 459 447 445 
3 480 461 462 
3 480 462 460 
3 461 483 464 
3 461 464 462 
3 483 463 466 
3 483 466 464 
3 463 465 467 
3 463 467 466 
3 465 486 449 
3 465 449 467 
3 486 468 451 
3 486 451 449 
3 468 489 469 
3 468 469 451 
3 489 488 470 
3 489 470 469 
3 488 471 453 
3 488 453 470 
3 471 491 472 
3 471 472 453 
3 491 473 454 
3 491 454 472 
3 473 493 474 
3 473 474 454 
3 493 494 456 
3 493 456 474 
3 494 475 457 
3 494 457 456 
3 475 495 476 
3 475 476 457 
3 495 497 477 
3 495 477 476 
3 497 496 458 
3 497 458 477 
3 496 499 479 
3 496 479 458 
3 499 478 459 
3 499 459 479 
3 478 480 460 
3 478 460 459 
3 481 1 461 
3 481 461 480 
3 1 482 483 
3 1 483 461 
3 482 484 463 
3 482 463 483 
3 484 3 465 
3 484 465 463 
3 3 485 486 
3 3 486 465 
3 485 6 468 
3 485 468 486 
3 6 487 489 
3 6 489 468 
3 487 8 488 
3 487 488 489 
3 8 490 471 
3 8 471 488 
3 490 9 491 
3 490 491 471 
3 9 492 473 
3 9 473 491 
3 492 10 493 
3 492 493 473 
3 10 13 494 
3 10 494 493 
3 13 12 475 
3 13 475 494 
3 12 16 495 
3 12 495 475 
3 16 15 497 
3 16 497 495 
3 15 18 496 
3 15 496 497 
3 18 19 499 
3 18 499 496 
3 19 498 478 
3 19 478 499 
3 498 481 480 
3 498 480 478 
