ply
format ascii 1.0
comment VCGLIB generated
element vertex 198
property float x
property float y
property float z
element face 385
property list uchar int vertex_indices
end_header
6.48648 2.10758 1.32252 
5.41654 1.75994 2.13988 
4.30471 0 2.13988 
5.69529 0 2.13988 
3.02409 0.982585 1.32252 
3.17971 0 1.32252 
3.02409 0.982585 -1.32252 
4.09402 1.33023 -2.13988 
5.41654 1.75994 -2.13988 
4.30471 0 -2.13988 
6.82029 0 -1.32252 
6.89516 2.24037 0 
5.51773 4.00886 1.32252 
4.60758 3.34761 2.13988 
3.48258 2.53025 2.13988 
4.09402 1.33023 2.13988 
2.2248 1.61641 0 
2.61541 0.849797 0 
2.57244 1.86899 -1.32252 
3.48258 2.53025 -2.13988 
4.60758 3.34761 -2.13988 
5.51773 4.00886 -1.32252 
5.86537 4.26144 0 
6.48648 2.10758 -1.32252 
3.34761 4.60758 2.13988 
2.53025 3.48258 2.13988 
2.57244 1.86899 1.32252 
1.86899 2.57244 1.32252 
1.86899 2.57244 -1.32252 
2.53025 3.48258 -2.13988 
3.34761 4.60758 -2.13988 
4.00886 5.51773 -1.32252 
4.26144 5.86537 0 
1.75994 5.41654 2.13988 
4.00886 5.51773 1.32252 
1.33023 4.09402 2.13988 
0.982585 3.02409 1.32252 
1.61641 2.2248 0 
0.982585 3.02409 -1.32252 
1.33023 4.09402 -2.13988 
1.75994 5.41654 -2.13988 
2.10758 6.48648 1.32252 
2.24037 6.89516 0 
-0 4.30471 2.13988 
-0 2.75 0 
0.849797 2.61541 0 
-0 4.30471 -2.13988 
-0 5.69529 -2.13988 
2.10758 6.48648 -1.32252 
-0 7.25 0 
-0 5.69529 2.13988 
-0 6.82029 1.32252 
-0 3.17971 1.32252 
-0 3.17971 -1.32252 
-1.75994 5.41654 -2.13988 
-2.10758 6.48648 -1.32252 
-2.24037 6.89516 0 
-0 6.82029 -1.32252 
-2.10758 6.48648 1.32252 
-1.75994 5.41654 2.13988 
-3.34761 4.60758 2.13988 
-2.53025 3.48258 2.13988 
-1.33023 4.09402 2.13988 
-0.982585 3.02409 1.32252 
-0.849797 2.61541 0 
-1.86899 2.57244 -1.32252 
-2.53025 3.48258 -2.13988 
-1.33023 4.09402 -2.13988 
-0.982585 3.02409 -1.32252 
-3.34761 4.60758 -2.13988 
-4.00886 5.51773 -1.32252 
-4.26144 5.86537 0 
-5.51773 4.00886 1.32252 
-4.00886 5.51773 1.32252 
-4.60758 3.34761 2.13988 
-2.57244 1.86899 1.32252 
-1.86899 2.57244 1.32252 
-1.61641 2.2248 0 
-5.51773 4.00886 -1.32252 
-6.48648 2.10758 1.32252 
-4.09402 1.33023 2.13988 
-3.48258 2.53025 2.13988 
-2.61541 0.849797 0 
-2.57244 1.86899 -1.32252 
-2.2248 1.61641 0 
-3.02409 0.982585 -1.32252 
-4.09402 1.33023 -2.13988 
-3.48258 2.53025 -2.13988 
-5.41654 1.75994 -2.13988 
-6.48648 2.10758 -1.32252 
-4.60758 3.34761 -2.13988 
-5.86537 4.26144 0 
-5.69529 -0 2.13988 
-5.41654 1.75994 2.13988 
-4.30471 -0 2.13988 
-3.02409 0.982585 1.32252 
-4.30471 -0 -2.13988 
-6.89516 2.24037 0 
-6.48648 -2.10758 1.32252 
-7.25 -1e-006 0 
-6.82029 -1e-006 1.32252 
-4.09402 -1.33023 2.13988 
-3.02409 -0.982585 1.32252 
-2.61541 -0.849797 0 
-3.17971 -0 1.32252 
-3.17971 -0 -1.32252 
-2.75 -0 0 
-3.02409 -0.982585 -1.32252 
-5.69529 -0 -2.13988 
-6.89516 -2.24037 0 
-6.82029 -1e-006 -1.32252 
-4.60758 -3.34761 2.13988 
-5.41654 -1.75994 2.13988 
-3.48258 -2.53025 2.13988 
-2.57244 -1.86899 1.32252 
-2.2248 -1.61641 0 
-4.09402 -1.33023 -2.13988 
-4.60758 -3.34761 -2.13988 
-5.41654 -1.75994 -2.13988 
-5.51773 -4.00886 -1.32252 
-5.86537 -4.26144 0 
-6.48648 -2.10758 -1.32252 
-5.51773 -4.00886 1.32252 
-3.34761 -4.60758 2.13988 
-2.53025 -3.48258 2.13988 
-1.86899 -2.57244 1.32252 
-1.61641 -2.2248 0 
-3.48258 -2.53025 -2.13988 
-2.57244 -1.86899 -1.32252 
-2.53025 -3.48258 -2.13988 
-4.00887 -5.51773 -1.32252 
-2.10759 -6.48648 1.32252 
-1.75994 -5.41654 2.13988 
-4.00887 -5.51773 1.32252 
-1.33023 -4.09402 2.13988 
-1.86899 -2.57244 -1.32252 
-1.33023 -4.09402 -2.13988 
-1.75994 -5.41654 -2.13988 
-3.34761 -4.60758 -2.13988 
-4.26144 -5.86537 0 
0 -6.82029 1.32252 
0 -5.69529 2.13988 
0 -4.30471 2.13988 
0 -3.17971 1.32252 
-0.982585 -3.02409 1.32252 
0 -3.17971 -1.32252 
-0.849797 -2.61541 0 
0 -4.30471 -2.13988 
-0.982585 -3.02409 -1.32252 
0 -5.69529 -2.13988 
-2.24037 -6.89516 0 
-2.10759 -6.48648 -1.32252 
2.24037 -6.89516 0 
1.75994 -5.41654 2.13988 
1.33023 -4.09402 2.13988 
0.849797 -2.61541 0 
0 -2.75 0 
1.75994 -5.41654 -2.13988 
0 -6.82029 -1.32252 
2.10759 -6.48648 1.32252 
4.00886 -5.51773 1.32252 
3.3476 -4.60758 2.13988 
0.982585 -3.02409 1.32252 
1.86899 -2.57244 1.32252 
1.61641 -2.2248 0 
1.86899 -2.57244 -1.32252 
2.53025 -3.48259 -2.13988 
1.33023 -4.09402 -2.13988 
0.982585 -3.02409 -1.32252 
3.3476 -4.60758 -2.13988 
4.00886 -5.51773 -1.32252 
2.10759 -6.48648 -1.32252 
5.86537 -4.26144 0 
5.51773 -4.00886 1.32252 
3.48258 -2.53025 2.13988 
2.53025 -3.48259 2.13988 
2.2248 -1.61641 0 
4.60758 -3.34761 -2.13988 
5.51773 -4.00886 -1.32252 
4.26144 -5.86537 0 
5.41654 -1.75994 2.13988 
4.60758 -3.34761 2.13988 
4.09402 -1.33023 2.13988 
2.57244 -1.86899 1.32252 
3.02409 -0.982585 -1.32252 
3.48258 -2.53025 -2.13988 
2.57244 -1.86899 -1.32252 
4.09402 -1.33023 -2.13988 
6.82029 0 1.32252 
6.48648 -2.10758 1.32252 
3.02409 -0.982585 1.32252 
2.75 0 0 
2.61541 -0.849797 0 
3.17971 0 -1.32252 
5.69529 0 -2.13988 
5.41654 -1.75994 -2.13988 
6.89516 -2.24037 0 
6.48648 -2.10758 -1.32252 
3 188 11 0 
3 0 1 3 
3 0 3 188 
3 1 15 2 
3 1 2 3 
3 15 4 5 
3 15 5 2 
3 4 17 191 
3 4 191 5 
3 17 6 193 
3 17 193 191 
3 6 7 9 
3 6 9 193 
3 7 8 194 
3 7 194 9 
3 8 23 10 
3 8 10 194 
3 22 12 0 
3 22 0 11 
3 12 13 1 
3 12 1 0 
3 13 14 15 
3 13 15 1 
3 14 26 4 
3 14 4 15 
3 26 16 17 
3 26 17 4 
3 16 18 6 
3 16 6 17 
3 18 19 7 
3 18 7 6 
3 19 20 8 
3 19 8 7 
3 20 21 23 
3 20 23 8 
3 21 22 11 
3 21 11 23 
3 32 34 12 
3 32 12 22 
3 34 24 13 
3 34 13 12 
3 24 25 14 
3 24 14 13 
3 25 27 26 
3 25 26 14 
3 27 37 16 
3 27 16 26 
3 37 28 18 
3 37 18 16 
3 28 29 19 
3 28 19 18 
3 29 30 20 
3 29 20 19 
3 30 31 21 
3 30 21 20 
3 31 32 22 
3 31 22 21 
3 42 41 34 
3 42 34 32 
3 41 33 24 
3 41 24 34 
3 33 35 25 
3 33 25 24 
3 35 36 27 
3 35 27 25 
3 36 45 37 
3 36 37 27 
3 45 38 28 
3 45 28 37 
3 38 39 29 
3 38 29 28 
3 39 40 30 
3 39 30 29 
3 40 48 31 
3 40 31 30 
3 48 42 32 
3 48 32 31 
3 49 51 41 
3 49 41 42 
3 51 50 33 
3 51 33 41 
3 50 43 35 
3 50 35 33 
3 43 52 36 
3 43 36 35 
3 52 44 45 
3 52 45 36 
3 44 53 38 
3 44 38 45 
3 53 46 39 
3 53 39 38 
3 46 47 40 
3 46 40 39 
3 47 57 48 
3 47 48 40 
3 57 49 42 
3 57 42 48 
3 56 58 51 
3 56 51 49 
3 58 59 50 
3 58 50 51 
3 59 62 43 
3 59 43 50 
3 62 63 52 
3 62 52 43 
3 63 64 44 
3 63 44 52 
3 64 68 53 
3 64 53 44 
3 68 67 46 
3 68 46 53 
3 67 54 47 
3 67 47 46 
3 54 55 57 
3 54 57 47 
3 55 56 49 
3 55 49 57 
3 71 73 58 
3 71 58 56 
3 73 60 59 
3 73 59 58 
3 60 61 62 
3 60 62 59 
3 61 76 63 
3 61 63 62 
3 76 77 64 
3 76 64 63 
3 77 65 68 
3 77 68 64 
3 65 66 67 
3 65 67 68 
3 66 69 54 
3 66 54 67 
3 69 70 55 
3 69 55 54 
3 70 71 56 
3 70 56 55 
3 91 72 73 
3 91 73 71 
3 72 74 60 
3 72 60 73 
3 74 81 61 
3 74 61 60 
3 81 75 76 
3 81 76 61 
3 75 84 77 
3 75 77 76 
3 84 83 65 
3 84 65 77 
3 83 87 66 
3 83 66 65 
3 87 90 69 
3 87 69 66 
3 90 78 70 
3 90 70 69 
3 78 91 71 
3 78 71 70 
3 97 79 72 
3 97 72 91 
3 79 93 74 
3 79 74 72 
3 93 80 81 
3 93 81 74 
3 80 95 75 
3 80 75 81 
3 95 82 84 
3 95 84 75 
3 82 85 83 
3 82 83 84 
3 85 86 87 
3 85 87 83 
3 86 88 90 
3 86 90 87 
3 88 89 78 
3 88 78 90 
3 89 97 91 
3 89 91 78 
3 99 100 79 
3 99 79 97 
3 100 92 93 
3 100 93 79 
3 92 94 80 
3 92 80 93 
3 94 104 95 
3 94 95 80 
3 104 106 82 
3 104 82 95 
3 106 105 85 
3 106 85 82 
3 105 96 86 
3 105 86 85 
3 96 108 88 
3 96 88 86 
3 108 110 89 
3 108 89 88 
3 110 99 97 
3 110 97 89 
3 109 98 100 
3 109 100 99 
3 98 112 92 
3 98 92 100 
3 112 101 94 
3 112 94 92 
3 101 102 104 
3 101 104 94 
3 102 103 106 
3 102 106 104 
3 103 107 105 
3 103 105 106 
3 107 116 96 
3 107 96 105 
3 116 118 108 
3 116 108 96 
3 118 121 110 
3 118 110 108 
3 121 109 99 
3 121 99 110 
3 120 122 98 
3 120 98 109 
3 122 111 112 
3 122 112 98 
3 111 113 101 
3 111 101 112 
3 113 114 102 
3 113 102 101 
3 114 115 103 
3 114 103 102 
3 115 128 107 
3 115 107 103 
3 128 127 116 
3 128 116 107 
3 127 117 118 
3 127 118 116 
3 117 119 121 
3 117 121 118 
3 119 120 109 
3 119 109 121 
3 139 133 122 
3 139 122 120 
3 133 123 111 
3 133 111 122 
3 123 124 113 
3 123 113 111 
3 124 125 114 
3 124 114 113 
3 125 126 115 
3 125 115 114 
3 126 135 128 
3 126 128 115 
3 135 129 127 
3 135 127 128 
3 129 138 117 
3 129 117 127 
3 138 130 119 
3 138 119 117 
3 130 139 120 
3 130 120 119 
3 150 131 133 
3 150 133 139 
3 131 132 123 
3 131 123 133 
3 132 134 124 
3 132 124 123 
3 134 144 125 
3 134 125 124 
3 144 146 126 
3 144 126 125 
3 146 148 135 
3 146 135 126 
3 148 136 129 
3 148 129 135 
3 136 137 138 
3 136 138 129 
3 137 151 130 
3 137 130 138 
3 151 150 139 
3 151 139 130 
3 140 141 132 
3 140 132 131 
3 141 142 134 
3 141 134 132 
3 142 143 144 
3 142 144 134 
3 143 156 146 
3 143 146 144 
3 156 145 148 
3 156 148 146 
3 145 147 136 
3 145 136 148 
3 147 149 137 
3 147 137 136 
3 149 158 151 
3 149 151 137 
3 159 153 141 
3 159 141 140 
3 153 154 142 
3 153 142 141 
3 154 162 143 
3 154 143 142 
3 162 155 156 
3 162 156 143 
3 155 168 145 
3 155 145 156 
3 168 167 147 
3 168 147 145 
3 167 157 149 
3 167 149 147 
3 157 171 158 
3 157 158 149 
3 179 160 159 
3 179 159 152 
3 160 161 153 
3 160 153 159 
3 161 175 154 
3 161 154 153 
3 175 163 162 
3 175 162 154 
3 163 164 155 
3 163 155 162 
3 164 165 168 
3 164 168 155 
3 165 166 167 
3 165 167 168 
3 166 169 157 
3 166 157 167 
3 169 170 171 
3 169 171 157 
3 170 179 152 
3 170 152 171 
3 172 173 160 
3 172 160 179 
3 173 181 161 
3 181 174 175 
3 181 175 161 
3 174 183 163 
3 174 163 175 
3 183 176 164 
3 183 164 163 
3 176 186 165 
3 176 165 164 
3 186 185 166 
3 186 166 165 
3 185 177 169 
3 185 169 166 
3 177 178 170 
3 177 170 169 
3 178 172 179 
3 178 179 170 
3 196 189 173 
3 196 173 172 
3 189 180 181 
3 189 181 173 
3 180 182 174 
3 180 174 181 
3 182 190 183 
3 182 183 174 
3 190 192 176 
3 190 176 183 
3 192 184 186 
3 192 186 176 
3 184 187 185 
3 184 185 186 
3 187 195 177 
3 187 177 185 
3 195 197 178 
3 195 178 177 
3 197 196 172 
3 197 172 178 
3 188 3 180 
3 188 180 189 
3 3 2 182 
3 3 182 180 
3 2 5 190 
3 2 190 182 
3 5 191 192 
3 5 192 190 
3 191 193 184 
3 191 184 192 
3 193 9 187 
3 193 187 184 
3 9 194 195 
3 9 195 187 
3 194 10 197 
3 194 197 195 
3 10 196 197 
